<svg width="2086" height="843" viewBox="0 0 2086 843" fill="none" xmlns="http://www.w3.org/2000/svg">
<g filter="url(#filter0_f_2972_30752)">
<path fill-rule="evenodd" clip-rule="evenodd" d="M30.1325 30.8848C30.4724 30.1294 31.3605 29.7925 32.1159 30.1325C366.629 180.663 366.629 662.338 32.1159 812.868C31.3605 813.208 30.4724 812.871 30.1325 812.116C29.7925 811.36 30.1294 810.472 30.8848 810.133C363.039 660.663 363.039 182.338 30.8848 32.8683C30.1294 32.5283 29.7925 31.6403 30.1325 30.8848ZM143 530.49C201.403 529.688 248.5 482.094 248.5 423.5C248.5 364.907 201.403 317.313 143 316.511V530.49ZM140 533.49V566H31.5004V569H141.5H143V567.5V533.49C203.06 532.688 251.5 483.751 251.5 423.5C251.5 363.25 203.06 314.313 143 313.51V277.5V276H141.5H31.5004V279H140V313.51C79.9405 314.313 31.5004 363.25 31.5004 423.5C31.5004 483.751 79.9405 532.688 140 533.49ZM140 530.49C81.5974 529.688 34.5004 482.094 34.5004 423.5C34.5004 364.907 81.5974 317.313 140 316.511V530.49Z" fill="white"/>
<path fill-rule="evenodd" clip-rule="evenodd" d="M2055.87 30.8848C2055.53 30.1294 2054.64 29.7925 2053.88 30.1325C1719.37 180.663 1719.37 662.338 2053.88 812.868C2054.64 813.208 2055.53 812.871 2055.87 812.116C2056.21 811.36 2055.87 810.472 2055.12 810.133C1722.96 660.663 1722.96 182.338 2055.12 32.8683C2055.87 32.5283 2056.21 31.6403 2055.87 30.8848ZM1943 530.49C1884.6 529.688 1837.5 482.094 1837.5 423.5C1837.5 364.907 1884.6 317.313 1943 316.511V530.49ZM1946 533.49V566H2054.5V569H1944.5H1943V567.5V533.49C1882.94 532.688 1834.5 483.751 1834.5 423.5C1834.5 363.25 1882.94 314.313 1943 313.51V277.5V276H1944.5H2054.5V279H1946V313.51C2006.06 314.313 2054.5 363.25 2054.5 423.5C2054.5 483.751 2006.06 532.688 1946 533.49ZM1946 530.49C2004.4 529.688 2051.5 482.094 2051.5 423.5C2051.5 364.907 2004.4 317.313 1946 316.511V530.49Z" fill="white"/>
</g>
<defs>
<filter id="filter0_f_2972_30752" x="0" y="0" width="2086" height="843.001" filterUnits="userSpaceOnUse" color-interpolation-filters="sRGB">
<feFlood flood-opacity="0" result="BackgroundImageFix"/>
<feBlend mode="normal" in="SourceGraphic" in2="BackgroundImageFix" result="shape"/>
<feGaussianBlur stdDeviation="15" result="effect1_foregroundBlur_2972_30752"/>
</filter>
</defs>
</svg>
