<svg width="1920" height="137" viewBox="0 0 1920 137" fill="none" xmlns="http://www.w3.org/2000/svg">
<g filter="url(#filter0_f_3104_45855)">
<path fill-rule="evenodd" clip-rule="evenodd" d="M-52.8675 -675.115C-52.5276 -675.871 -51.6395 -676.207 -50.8841 -675.868C283.629 -525.337 283.629 -43.6624 -50.8841 106.868C-51.6395 107.208 -52.5276 106.871 -52.8675 106.116C-53.2075 105.36 -52.8706 104.472 -52.1152 104.133C280.039 -45.3369 280.039 -523.662 -52.1152 -673.132C-52.8706 -673.472 -53.2075 -674.36 -52.8675 -675.115ZM60.0004 -175.51C118.403 -176.312 165.5 -223.906 165.5 -282.5C165.5 -341.093 118.403 -388.687 60.0004 -389.489V-175.51ZM57.0004 -172.51V-140H-51.4996V-137H58.5004H60.0004V-138.5V-172.51C120.06 -173.312 168.5 -222.249 168.5 -282.5C168.5 -342.75 120.06 -391.687 60.0004 -392.49V-428.5V-430H58.5004H-51.4996V-427H57.0004V-392.49C-3.05949 -391.687 -51.4996 -342.75 -51.4996 -282.5C-51.4996 -222.249 -3.05949 -173.312 57.0004 -172.51ZM57.0004 -175.51C-1.40257 -176.312 -48.4996 -223.906 -48.4996 -282.5C-48.4996 -341.093 -1.40257 -388.687 57.0004 -389.489V-175.51Z" fill="white"/>
<path fill-rule="evenodd" clip-rule="evenodd" d="M1972.87 -675.115C1972.53 -675.871 1971.64 -676.207 1970.88 -675.868C1636.37 -525.337 1636.37 -43.6624 1970.88 106.868C1971.64 107.208 1972.53 106.871 1972.87 106.116C1973.21 105.36 1972.87 104.472 1972.12 104.133C1639.96 -45.3369 1639.96 -523.662 1972.12 -673.132C1972.87 -673.472 1973.21 -674.36 1972.87 -675.115ZM1860 -175.51C1801.6 -176.312 1754.5 -223.906 1754.5 -282.5C1754.5 -341.093 1801.6 -388.687 1860 -389.489V-175.51ZM1863 -172.51V-140H1971.5V-137H1861.5H1860V-138.5V-172.51C1799.94 -173.312 1751.5 -222.249 1751.5 -282.5C1751.5 -342.75 1799.94 -391.687 1860 -392.49V-428.5V-430H1861.5H1971.5V-427H1863V-392.49C1923.06 -391.687 1971.5 -342.75 1971.5 -282.5C1971.5 -222.249 1923.06 -173.312 1863 -172.51ZM1863 -175.51C1921.4 -176.312 1968.5 -223.906 1968.5 -282.5C1968.5 -341.093 1921.4 -388.687 1863 -389.489V-175.51Z" fill="white"/>
</g>
<defs>
<filter id="filter0_f_3104_45855" x="-83" y="-706" width="2086" height="843" filterUnits="userSpaceOnUse" color-interpolation-filters="sRGB">
<feFlood flood-opacity="0" result="BackgroundImageFix"/>
<feBlend mode="normal" in="SourceGraphic" in2="BackgroundImageFix" result="shape"/>
<feGaussianBlur stdDeviation="15" result="effect1_foregroundBlur_3104_45855"/>
</filter>
</defs>
</svg>
