<svg width="21" height="21" viewBox="0 0 21 21" fill="none" xmlns="http://www.w3.org/2000/svg">
<g clip-path="url(#clip0_3663_15194)">
<g clip-path="url(#clip1_3663_15194)">
<path d="M20.663 20.4999V20.499H20.668V13.164C20.668 9.57569 19.8955 6.81152 15.7005 6.81152C13.6839 6.81152 12.3305 7.91819 11.778 8.96736H11.7197V7.14652H7.74219V20.499H11.8839V13.8874C11.8839 12.1465 12.2139 10.4632 14.3697 10.4632C16.4939 10.4632 16.5255 12.4499 16.5255 13.999V20.4999H20.663Z" fill="#F4511E"/>
<path d="M0.996094 7.14746H5.14276V20.5H0.996094V7.14746Z" fill="#F4511E"/>
<path d="M3.06964 0.5C1.7438 0.5 0.667969 1.57583 0.667969 2.90167C0.667969 4.2275 1.7438 5.32583 3.06964 5.32583C4.39547 5.32583 5.4713 4.2275 5.4713 2.90167C5.47047 1.57583 4.39464 0.5 3.06964 0.5V0.5Z" fill="#F4511E"/>
</g>
</g>
<defs>
<clipPath id="clip0_3663_15194">
<rect width="20" height="20" fill="white" transform="translate(0.667969 0.5)"/>
</clipPath>
<clipPath id="clip1_3663_15194">
<rect width="20" height="20" fill="white" transform="translate(0.667969 0.5)"/>
</clipPath>
</defs>
</svg>
