<svg width="1280" height="101" viewBox="0 0 1280 101" fill="none" xmlns="http://www.w3.org/2000/svg">
<g clip-path="url(#clip0_3104_45399)">
<path d="M1162.4 -18.5999C1159.8 -15.9999 1159 -14.3999 1159 -11.5999C1159 -0.599866 1171 4.80013 1178.3 -2.79987C1185.6 -10.4999 1180.4 -21.9999 1169.7 -21.9999C1166.6 -21.9999 1165.1 -21.2999 1162.4 -18.5999Z" fill="#F4511E"/>
<path d="M357.3 -18.9999C353.3 -16.5999 352 -14.1999 352 -8.99986C352 -5.59986 352.6 -4.19986 355.4 -1.39986C359.8 3.00014 365.3 3.30014 369.9 -0.499862C376.3 -5.89986 375.8 -14.6999 368.8 -18.9999C364.7 -21.4999 361.4 -21.4999 357.3 -18.9999Z" fill="#F4511E"/>
<path d="M1063.3 -13.5C1052.7 -8.9 1056.8 8 1068.5 8C1080.3 8 1084.2 -8.3 1073.6 -13.4C1069.5 -15.3 1067.5 -15.4 1063.3 -13.5Z" fill="#F4511E"/>
<path d="M1137.7 -11.8999C1129.5 -5.49987 1134 8.00013 1144.4 8.30013C1151.3 8.50013 1156 3.70013 1156 -3.59987C1156 -6.39987 1155.2 -7.99987 1152.6 -10.5999C1149.7 -13.4999 1148.5 -13.9999 1144.7 -13.9999C1141.7 -13.9999 1139.4 -13.2999 1137.7 -11.8999Z" fill="#F4511E"/>
<path d="M310.4 -4.60009C307.5 -1.70009 307 -0.500085 307 3.29992C307 16.5999 324.2 19.1999 329 6.59992C331.4 0.0999155 325.3 -8.00009 317.8 -8.00009C314.6 -8.00009 313.1 -7.30009 310.4 -4.60009Z" fill="#F4511E"/>
<path d="M1179.4 2.80016C1173.3 6.70016 1172.5 14.8002 1177.7 20.2002C1185.3 28.1002 1198.2 21.6002 1196.7 10.7002C1195.6 2.60016 1186.4 -1.49984 1179.4 2.80016Z" fill="#F4511E"/>
<path d="M337.799 4.69978C331.099 8.99978 330.499 17.5998 336.599 22.8998C340.499 26.3998 344.399 26.8998 348.999 24.4998C355.599 21.0998 357.199 12.4998 352.199 6.89978C348.699 2.99978 341.999 1.99978 337.799 4.69978Z" fill="#F4511E"/>
<path d="M1155.2 9.59985C1145.5 14.4998 1147.9 29.1999 1158.7 30.6999C1169.9 32.1999 1176.2 19.3998 1168.1 11.5998C1164.6 8.19985 1159.5 7.39985 1155.2 9.59985Z" fill="#F4511E"/>
<path d="M311.4 20.8999C299.5 28.0999 309.8 46.4999 322.4 40.4999C328.8 37.3999 330.8 30.3999 327 24.1999C323.7 18.8999 317.1 17.3999 311.4 20.8999Z" fill="#F4511E"/>
<path d="M1167.1 32.3C1159.3 35 1157.2 45 1163.1 50.9C1165.7 53.5 1166.9 54 1171 54C1175 54 1176.3 53.5 1178.8 51C1187.5 42.3 1178.8 28.3 1167.1 32.3Z" fill="#F4511E"/>
<path d="M312.799 48.7C306.499 52.7 305.499 61.3 310.899 66.4C318.499 73.7 329.999 68.4 329.999 57.6C329.999 49.6 319.599 44.3 312.799 48.7Z" fill="#F4511E"/>
<path d="M1263.2 69.6998C1255.2 73.5998 1255.1 85.3998 1263 89.4998C1273.3 94.7998 1284.1 83.7998 1278.3 73.8998C1276.5 70.8998 1271.6 67.9998 1268.3 67.9998C1267.3 67.9998 1265 68.7998 1263.2 69.6998Z" fill="#F4511E"/>
<path d="M312.4 81.3998C309.5 84.2998 309 85.4998 309 89.3998C309 92.9998 309.6 94.5998 311.9 97.1998C316.2 102 323.8 102 328.1 97.1998C330.4 94.5998 331 92.9998 331 89.3998C331 85.4998 330.5 84.2998 327.6 81.3998C324.8 78.5998 323.4 77.9998 320 77.9998C316.6 77.9998 315.2 78.5998 312.4 81.3998Z" fill="#F4511E"/>
</g>
<defs>
<clipPath id="clip0_3104_45399">
<rect width="1280" height="770" fill="white" transform="translate(0 -669)"/>
</clipPath>
</defs>
</svg>
