<svg width="21" height="21" viewBox="0 0 21 21" fill="none" xmlns="http://www.w3.org/2000/svg">
<g clip-path="url(#clip0_3663_15188)">
<g clip-path="url(#clip1_3663_15188)">
<path d="M20.668 4.29875C19.9242 4.625 19.1317 4.84125 18.3055 4.94625C19.1555 4.43875 19.8042 3.64125 20.1092 2.68C19.3167 3.1525 18.4417 3.48625 17.5092 3.6725C16.7567 2.87125 15.6842 2.375 14.5142 2.375C12.2442 2.375 10.4167 4.2175 10.4167 6.47625C10.4167 6.80125 10.4442 7.11375 10.5117 7.41125C7.10297 7.245 4.08672 5.61125 2.06047 3.1225C1.70672 3.73625 1.49922 4.43875 1.49922 5.195C1.49922 6.615 2.23047 7.87375 3.32047 8.6025C2.66172 8.59 2.01547 8.39875 1.46797 8.0975C1.46797 8.11 1.46797 8.12625 1.46797 8.1425C1.46797 10.135 2.88922 11.79 4.75297 12.1712C4.41922 12.2625 4.05547 12.3062 3.67797 12.3062C3.41547 12.3062 3.15047 12.2913 2.90172 12.2362C3.43297 13.86 4.94047 15.0538 6.73297 15.0925C5.33797 16.1838 3.56672 16.8412 1.64922 16.8412C1.31297 16.8412 0.990469 16.8263 0.667969 16.785C2.48422 17.9563 4.63672 18.625 6.95797 18.625C14.503 18.625 18.628 12.375 18.628 6.9575C18.628 6.77625 18.6217 6.60125 18.613 6.4275C19.4267 5.85 20.1105 5.12875 20.668 4.29875Z" fill="#F4511E"/>
</g>
</g>
<defs>
<clipPath id="clip0_3663_15188">
<rect width="20" height="20" fill="white" transform="translate(0.667969 0.5)"/>
</clipPath>
<clipPath id="clip1_3663_15188">
<rect width="20" height="20" fill="white" transform="translate(0.667969 0.5)"/>
</clipPath>
</defs>
</svg>
