<svg width="2086" height="1080" viewBox="0 0 2086 1080" fill="none" xmlns="http://www.w3.org/2000/svg">
<rect width="1920" height="1080" transform="translate(83)" fill="black"/>
<g filter="url(#filter0_f_3643_51441)">
<path fill-rule="evenodd" clip-rule="evenodd" d="M30.1325 148.885C30.4724 148.129 31.3605 147.793 32.1159 148.132C366.629 298.663 366.629 780.338 32.1159 930.868C31.3605 931.208 30.4724 930.871 30.1325 930.116C29.7925 929.36 30.1294 928.472 30.8848 928.133C363.039 778.663 363.039 300.338 30.8848 150.868C30.1294 150.528 29.7925 149.64 30.1325 148.885ZM143 648.49C201.403 647.688 248.5 600.094 248.5 541.5C248.5 482.907 201.403 435.313 143 434.511V648.49ZM140 651.49V684H31.5004V687H141.5H143V685.5V651.49C203.06 650.688 251.5 601.751 251.5 541.5C251.5 481.25 203.06 432.313 143 431.51V395.5V394H141.5H31.5004V397H140V431.51C79.9405 432.313 31.5004 481.25 31.5004 541.5C31.5004 601.751 79.9405 650.688 140 651.49ZM140 648.49C81.5974 647.688 34.5004 600.094 34.5004 541.5C34.5004 482.907 81.5974 435.313 140 434.511V648.49Z" fill="white"/>
<path fill-rule="evenodd" clip-rule="evenodd" d="M2055.87 148.885C2055.53 148.129 2054.64 147.793 2053.88 148.132C1719.37 298.663 1719.37 780.338 2053.88 930.868C2054.64 931.208 2055.53 930.871 2055.87 930.116C2056.21 929.36 2055.87 928.472 2055.12 928.133C1722.96 778.663 1722.96 300.338 2055.12 150.868C2055.87 150.528 2056.21 149.64 2055.87 148.885ZM1943 648.49C1884.6 647.688 1837.5 600.094 1837.5 541.5C1837.5 482.907 1884.6 435.313 1943 434.511V648.49ZM1946 651.49V684H2054.5V687H1944.5H1943V685.5V651.49C1882.94 650.688 1834.5 601.751 1834.5 541.5C1834.5 481.25 1882.94 432.313 1943 431.51V395.5V394H1944.5H2054.5V397H1946V431.51C2006.06 432.313 2054.5 481.25 2054.5 541.5C2054.5 601.751 2006.06 650.688 1946 651.49ZM1946 648.49C2004.4 647.688 2051.5 600.094 2051.5 541.5C2051.5 482.907 2004.4 435.313 1946 434.511V648.49Z" fill="white"/>
</g>
<defs>
<filter id="filter0_f_3643_51441" x="0" y="118" width="2086" height="843" filterUnits="userSpaceOnUse" color-interpolation-filters="sRGB">
<feFlood flood-opacity="0" result="BackgroundImageFix"/>
<feBlend mode="normal" in="SourceGraphic" in2="BackgroundImageFix" result="shape"/>
<feGaussianBlur stdDeviation="15" result="effect1_foregroundBlur_3643_51441"/>
</filter>
</defs>
</svg>
